<svg width="90%" viewBox="0 0 676 483" fill="none" xmlns="http://www.w3.org/2000/svg">
        <g id="Group">
            <path id="body" d="M387.515 0.000169274H56.8939C41.2599 -0.0341651 26.8707 5.15697 16.6621 13.4293C6.39033 21.684 0 33.2791 0 45.8953V194.481C0 207.114 6.39033 218.709 16.6634 226.947C26.872 235.236 41.2613 240.411 56.8953 240.411H387.517C403.129 240.411 417.518 235.236 427.748 226.947C438 218.709 444.432 207.115 444.412 194.481V45.8953C444.434 33.2791 438 21.6851 427.748 13.4293C417.516 5.15697 403.127 -0.0341651 387.515 0.000169274Z" fill="#676767"/>
            <path id="head" d="M645.427 7.09503C635.862 2.42223 624.84 0 614.009 0C604.037 0 594.193 1.95595 585.101 5.84903L464 57.9565V64.3427V125.328V166.793V187.265L585.101 239.355C594.193 243.266 604.037 245.222 614.009 245.222C624.84 245.222 635.862 242.868 645.512 238.179C663.891 229.231 675.192 213.137 675.192 195.761V49.4249C675.192 32.0506 663.891 15.991 645.427 7.09503Z" fill="#676767"/>
            <path id="stand" d="M312.583 319.061H347.346V284H121.036V319.061H152.302L87.7086 433.677C84.1909 439.925 87.6222 447.297 95.3644 450.134L116.767 457.991C124.509 460.83 133.645 458.061 137.161 451.83L203.148 334.653V470.243C203.148 477.097 210.032 482.669 218.546 482.669H246.339C254.81 482.669 261.715 477.097 261.715 470.243V334.671L327.681 451.83C331.219 458.06 340.354 460.829 348.075 457.991L369.477 450.134C377.22 447.295 380.651 439.924 377.133 433.677L312.583 319.061Z" fill="#676767"/>
        </g>
</svg>
