<svg width="90%" viewBox="0 0 820 727" fill="none" xmlns="http://www.w3.org/2000/svg">
<rect width="820" height="727" fill="#1D1D1D"/>
<g id="movie-projector-svgrepo-com 1">
<g id="Group">
<path id="body" d="M452.515 138H121.894C106.26 137.966 91.8707 143.157 81.6621 151.429C71.3903 159.684 65 171.279 65 183.895V332.481C65 345.114 71.3903 356.709 81.6634 364.947C91.872 373.236 106.261 378.411 121.895 378.411H452.517C468.129 378.411 482.518 373.236 492.748 364.947C503 356.709 509.432 345.115 509.412 332.481V183.895C509.434 171.279 503 159.685 492.748 151.429C482.516 143.157 468.127 137.966 452.515 138Z" fill="#676767"/>
<path id="head" d="M710.427 145.095C700.862 140.422 689.84 138 679.009 138C669.037 138 659.193 139.956 650.101 143.849L529 195.956V202.343V263.328V304.793V325.265L650.101 377.355C659.193 381.266 669.037 383.222 679.009 383.222C689.84 383.222 700.862 380.868 710.512 376.179C728.891 367.231 740.192 351.137 740.192 333.761V187.425C740.192 170.051 728.891 153.991 710.427 145.095Z" fill="#676767"/>
<path id="stand" d="M377.583 457.061H412.346V422H186.036V457.061H217.302L152.709 571.677C149.191 577.925 152.622 585.297 160.364 588.134L181.767 595.991C189.509 598.83 198.645 596.061 202.161 589.83L268.148 472.653V608.243C268.148 615.097 275.032 620.669 283.546 620.669H311.339C319.81 620.669 326.715 615.097 326.715 608.243V472.671L392.681 589.83C396.219 596.06 405.354 598.829 413.075 595.991L434.477 588.134C442.22 585.295 445.651 577.924 442.133 571.677L377.583 457.061Z" fill="#676767"/>
</g>
</g>
</svg>
